<?xml version="1.0" encoding="UTF-8"?>
<svg version="1.1" xmlns="http://www.w3.org/2000/svg" width="500" height="500">
<path d="M0 0 C0.83601242 -0.01243744 1.67202484 -0.02487488 2.53337097 -0.03768921 C29.609223 -0.36142375 55.0897343 1.93079611 81.25390625 9.2734375 C83.33650121 9.75580324 85.41980907 10.23510409 87.50390625 10.7109375 C93.72340265 12.28244127 99.4058678 14.66270605 105.25390625 17.2734375 C106.75357712 17.92003472 108.25360367 18.56580739 109.75390625 19.2109375 C126.51950295 26.49808136 142.42862723 34.98313159 157.48046875 45.375 C160.06041597 47.23343406 160.06041597 47.23343406 162.25390625 48.2734375 C162.25390625 48.9334375 162.25390625 49.5934375 162.25390625 50.2734375 C162.80175781 50.51449219 163.34960938 50.75554688 163.9140625 51.00390625 C166.80180133 52.57070946 169.15774682 54.49505351 171.69140625 56.5859375 C172.61824219 57.34519531 173.54507812 58.10445312 174.5 58.88671875 C177.21629615 61.24084208 179.72112289 63.7246996 182.25390625 66.2734375 C184.86608032 68.59966352 187.50154124 70.89638735 190.14453125 73.1875 C192.25390625 75.2734375 192.25390625 75.2734375 193.25390625 78.2734375 C194.10662109 78.65242188 194.10662109 78.65242188 194.9765625 79.0390625 C198.44823293 80.92079124 200.34774187 83.90284999 202.69140625 87.0234375 C203.62673674 88.24805884 204.56292867 89.47202273 205.5 90.6953125 C205.95358887 91.29279297 206.40717773 91.89027344 206.87451172 92.50585938 C208.23596712 94.25045001 209.65652749 95.92595305 211.1015625 97.6015625 C213.25390625 100.2734375 213.25390625 100.2734375 213.25390625 102.2734375 C213.91390625 102.2734375 214.57390625 102.2734375 215.25390625 102.2734375 C219.25390625 109.0234375 219.25390625 109.0234375 219.25390625 111.2734375 C219.91390625 111.2734375 220.57390625 111.2734375 221.25390625 111.2734375 C221.83205078 112.47806641 221.83205078 112.47806641 222.421875 113.70703125 C224.16645962 117.19722251 226.13734032 120.5364779 228.1237793 123.89331055 C243.54786895 150.00906905 252.93506575 179.25272306 257.25390625 209.2734375 C257.50877808 210.96267334 257.50877808 210.96267334 257.76879883 212.68603516 C259.2438473 223.24351539 259.61392211 233.62155356 259.56640625 244.2734375 C259.56367203 245.55202637 259.56367203 245.55202637 259.56088257 246.85644531 C259.51069646 260.84970624 258.7537168 274.47939272 256.25390625 288.2734375 C256.09825195 289.18270996 255.94259766 290.09198242 255.78222656 291.02880859 C250.41274375 321.62199961 238.40438285 350.55406835 222.25 376.97265625 C220.79366575 379.3808802 219.4452356 381.72978835 218.25390625 384.2734375 C217.59390625 384.2734375 216.93390625 384.2734375 216.25390625 384.2734375 C216.25390625 385.2634375 216.25390625 386.2534375 216.25390625 387.2734375 C215.59390625 387.2734375 214.93390625 387.2734375 214.25390625 387.2734375 C213.04762617 389.60557898 212.08843245 391.76985889 211.25390625 394.2734375 C209.94456576 395.6303395 208.60777658 396.96096248 207.25390625 398.2734375 C205.98318157 399.81912991 204.73396979 401.38269482 203.50390625 402.9609375 C200.09503117 407.27799319 196.52742243 411.39835128 192.8203125 415.4609375 C191.18877729 417.19829538 191.18877729 417.19829538 190.25390625 419.2734375 C189.26390625 419.6034375 188.27390625 419.9334375 187.25390625 420.2734375 C185.52569351 421.90289523 183.88945455 423.55444286 182.25390625 425.2734375 C180.86406622 426.71673291 179.46791045 428.15396581 178.06640625 429.5859375 C177.39222656 430.28332031 176.71804688 430.98070312 176.0234375 431.69921875 C174.25390625 433.2734375 174.25390625 433.2734375 172.25390625 433.2734375 C172.25390625 433.9334375 172.25390625 434.5934375 172.25390625 435.2734375 C170.93139648 436.53515625 170.93139648 436.53515625 169.0625 437.9609375 C168.02838989 438.75395264 168.02838989 438.75395264 166.97338867 439.56298828 C165.84380737 440.40966064 165.84380737 440.40966064 164.69140625 441.2734375 C163.52992065 442.14911377 163.52992065 442.14911377 162.3449707 443.04248047 C145.60847245 455.55763722 127.86120546 466.81528471 108.25390625 474.2734375 C106.45309732 475.0124863 104.65232711 475.75163259 102.85253906 476.49316406 C87.6559986 482.69757685 72.35590603 487.13246445 56.25390625 490.2734375 C55.39958008 490.44149902 54.54525391 490.60956055 53.66503906 490.78271484 C27.12253709 495.72931863 -3.28561468 495.60770905 -29.74609375 490.2734375 C-31.22940186 489.97542236 -31.22940186 489.97542236 -32.74267578 489.67138672 C-69.73476584 481.97311077 -106.37407211 466.78197617 -136.29296875 443.3671875 C-137.77272786 442.18488058 -137.77272786 442.18488058 -139.74609375 441.2734375 C-139.74609375 440.6134375 -139.74609375 439.9534375 -139.74609375 439.2734375 C-140.28363281 439.05300781 -140.82117188 438.83257812 -141.375 438.60546875 C-144.55058993 436.82148824 -147.04999639 434.44276421 -149.68359375 431.9609375 C-150.24481934 431.43765869 -150.80604492 430.91437988 -151.38427734 430.37524414 C-157.65320303 424.4906104 -163.70681116 418.39195266 -169.74609375 412.2734375 C-170.29652344 411.72945313 -170.84695312 411.18546875 -171.4140625 410.625 C-172.98076557 409.03532475 -174.46410866 407.39086736 -175.93359375 405.7109375 C-176.72830078 404.81181641 -176.72830078 404.81181641 -177.5390625 403.89453125 C-178.74609375 402.2734375 -178.74609375 402.2734375 -178.74609375 400.2734375 C-179.40609375 400.2734375 -180.06609375 400.2734375 -180.74609375 400.2734375 C-182.02709961 398.79223633 -182.02709961 398.79223633 -183.4609375 396.73046875 C-183.98236328 395.98603516 -184.50378906 395.24160156 -185.04101562 394.47460938 C-185.8540918 393.2922168 -185.8540918 393.2922168 -186.68359375 392.0859375 C-187.49086914 390.93254883 -187.49086914 390.93254883 -188.31445312 389.75585938 C-195.74609375 379.08032136 -195.74609375 379.08032136 -195.74609375 376.2734375 C-196.40609375 376.2734375 -197.06609375 376.2734375 -197.74609375 376.2734375 C-198.13796875 375.4690625 -198.52984375 374.6646875 -198.93359375 373.8359375 C-200.25941299 371.23001692 -201.62254051 368.69164147 -203.05859375 366.1484375 C-208.79736589 355.88087531 -213.99668946 345.28734547 -218.03125 334.23046875 C-218.50570385 332.93155411 -218.99261843 331.63711988 -219.4921875 330.34765625 C-221.28157894 325.72119858 -222.74258642 321.04922943 -224.09765625 316.27734375 C-224.57044035 314.29740262 -224.57044035 314.29740262 -225.74609375 313.2734375 C-226.09766635 311.94987007 -226.40205598 310.61365036 -226.68359375 309.2734375 C-226.85761719 308.45746094 -227.03164062 307.64148438 -227.2109375 306.80078125 C-227.38753906 305.96675781 -227.56414062 305.13273437 -227.74609375 304.2734375 C-228.07801291 302.79395286 -228.4113119 301.314777 -228.74609375 299.8359375 C-232.85655106 281.28535275 -234.1793196 263.17578072 -234.66259766 244.19384766 C-234.72757458 241.92117532 -234.82916181 239.64953845 -234.9453125 237.37890625 C-235.65083766 218.03778556 -230.79904889 197.84812962 -225.74609375 179.2734375 C-225.51664063 178.42700684 -225.2871875 177.58057617 -225.05078125 176.70849609 C-214.92043168 139.95119061 -195.68409129 106.28271939 -169.6875 78.37109375 C-167.79867338 76.33024889 -166.02553401 74.22207649 -164.24609375 72.0859375 C-161.11868891 68.47851239 -157.61392422 65.6999152 -153.796875 62.8515625 C-151.59573969 61.22802322 -151.59573969 61.22802322 -149.30859375 58.8359375 C-141.6122039 51.13954765 -132.4852052 45.29263697 -123.41308594 39.375 C-121.34702907 38.00973219 -119.33247442 36.5752346 -117.30859375 35.1484375 C-111.46658107 31.23895373 -105.05170938 28.30531722 -98.73730469 25.24731445 C-96.69151928 24.24674579 -94.66262091 23.21612956 -92.6328125 22.18359375 C-87.16890567 19.44731499 -81.47033994 17.39591081 -75.74609375 15.2734375 C-74.64007813 14.84804688 -73.5340625 14.42265625 -72.39453125 13.984375 C-63.32019617 10.58410691 -54.19766914 8.30828371 -44.74609375 6.2734375 C-43.87726563 6.08007812 -43.0084375 5.88671875 -42.11328125 5.6875 C-33.4027126 3.83612478 -24.55013414 2.59463056 -15.74609375 1.2734375 C-14.67891113 1.09997803 -13.61172852 0.92651855 -12.51220703 0.74780273 C-8.31947637 0.21970241 -4.2208647 0.05807169 0 0 Z M-71.74609375 91.2734375 C-72.67421875 92.1190625 -73.60234375 92.9646875 -74.55859375 93.8359375 C-77.70587067 97.34290321 -78.71446004 99.69175185 -78.80859375 104.3984375 C-78.00751203 107.51553997 -78.00751203 107.51553997 -74.99609375 108.8359375 C-73.58627282 109.33488647 -72.16812989 109.81044899 -70.74609375 110.2734375 C-63.44327465 112.86415481 -56.83332708 115.4397648 -50.55078125 120.0390625 C-48.65678109 121.45574833 -48.65678109 121.45574833 -45.74609375 122.2734375 C-45.74609375 122.9334375 -45.74609375 123.5934375 -45.74609375 124.2734375 C-45.08609375 124.2734375 -44.42609375 124.2734375 -43.74609375 124.2734375 C-43.46636719 124.98628906 -43.18664062 125.69914062 -42.8984375 126.43359375 C-42.15401004 128.26816582 -41.37731009 130.09011682 -40.5625 131.89453125 C-37.1621427 139.53209391 -35.21803874 147.05839318 -33.74609375 155.2734375 C-33.45605469 156.84931641 -33.45605469 156.84931641 -33.16015625 158.45703125 C-32.63266278 162.04498213 -32.81898414 164.7636654 -33.74609375 168.2734375 C-35.93359375 170.3984375 -35.93359375 170.3984375 -38.74609375 171.2734375 C-41.99609375 170.6484375 -41.99609375 170.6484375 -44.74609375 168.2734375 C-45.30827623 165.71503078 -45.38444227 163.26169762 -45.4921875 160.64453125 C-46.43161054 148.17188378 -50.12950739 136.89111654 -59.74609375 128.5234375 C-66.35078185 123.69046539 -74.24780012 121.62508823 -81.99609375 119.296875 C-85.48218882 117.99949303 -87.28606532 116.01461203 -89.74609375 113.2734375 C-90.07609375 112.9434375 -90.40609375 112.6134375 -90.74609375 112.2734375 C-101.82141223 112.64261478 -112.58202152 116.70719207 -120.74609375 124.2734375 C-121.29910156 124.78519531 -121.85210937 125.29695313 -122.421875 125.82421875 C-128.99298129 132.65621263 -131.42579229 141.98469525 -131.74609375 151.2734375 C-131.81441406 152.38460937 -131.88273437 153.49578125 -131.953125 154.640625 C-131.45054546 163.4594735 -124.22831406 174.30587362 -117.74609375 180.2734375 C-112.29439746 183.76217528 -106.97197748 185.03806088 -100.62109375 185.8359375 C-95.03916459 186.55814036 -90.73979939 187.48022233 -85.74609375 190.2734375 C-84.26109375 190.7684375 -84.26109375 190.7684375 -82.74609375 191.2734375 C-82.34390625 192.5109375 -82.34390625 192.5109375 -81.93359375 193.7734375 C-79.0355719 202.31497559 -74.98852276 206.72117743 -66.99609375 210.7109375 C-60.11075178 213.97904831 -53.66981553 216.0049993 -46.0234375 216.421875 C-39.19771125 216.83436493 -39.19771125 216.83436493 -36.49609375 219.4609375 C-35.54038261 223.04485426 -36.26905206 224.93065895 -37.74609375 228.2734375 C-50.05526101 231.43080754 -66.02523859 225.53856117 -76.87109375 219.7109375 C-80.05395365 217.81680619 -82.87902501 215.61922101 -85.74609375 213.2734375 C-86.40609375 213.2734375 -87.06609375 213.2734375 -87.74609375 213.2734375 C-87.90464844 212.69335938 -88.06320313 212.11328125 -88.2265625 211.515625 C-88.45988281 210.73445312 -88.69320312 209.95328125 -88.93359375 209.1484375 C-89.15402344 208.38273438 -89.37445313 207.61703125 -89.6015625 206.828125 C-91.13349385 203.40872874 -92.78481561 200.58320784 -95.74609375 198.2734375 C-98.80572838 197.21931732 -101.84721545 196.89333013 -105.05859375 196.5859375 C-114.00971732 195.58979825 -121.61251217 194.50791834 -127.74609375 187.2734375 C-129.58402575 184.88573108 -131.40962808 182.49351169 -133.1953125 180.06640625 C-133.70707031 179.47472656 -134.21882813 178.88304687 -134.74609375 178.2734375 C-135.40609375 178.2734375 -136.06609375 178.2734375 -136.74609375 178.2734375 C-136.82859375 177.6134375 -136.91109375 176.9534375 -136.99609375 176.2734375 C-137.99369166 172.28304587 -139.81776058 168.88794107 -141.74609375 165.2734375 C-142.73609375 165.2734375 -143.72609375 165.2734375 -144.74609375 165.2734375 C-144.74609375 165.9334375 -144.74609375 166.5934375 -144.74609375 167.2734375 C-146.23109375 167.7684375 -146.23109375 167.7684375 -147.74609375 168.2734375 C-147.74609375 169.2634375 -147.74609375 170.2534375 -147.74609375 171.2734375 C-148.32746094 171.51578125 -148.90882813 171.758125 -149.5078125 172.0078125 C-158.94188102 177.34225962 -164.66760472 190.86107774 -167.84765625 200.671875 C-171.1921919 213.83121622 -170.82406017 228.37463643 -164.01953125 240.5 C-158.96773529 247.53532321 -152.15085745 251.48541771 -143.74609375 253.2734375 C-132.7526689 254.23308453 -124.08086986 253.53095759 -115.21484375 246.7109375 C-114.73015625 246.2365625 -114.24546875 245.7621875 -113.74609375 245.2734375 C-113.74609375 244.6134375 -113.74609375 243.9534375 -113.74609375 243.2734375 C-110.69537278 242.98563363 -107.78729211 242.84206185 -104.74609375 243.2734375 C-102.2528436 245.91779372 -101.79846274 247.48790259 -101.55859375 251.0859375 C-101.62046875 251.8078125 -101.68234375 252.5296875 -101.74609375 253.2734375 C-102.32230469 253.53253906 -102.89851563 253.79164063 -103.4921875 254.05859375 C-105.91778463 255.36597799 -107.73141975 256.90554327 -109.80859375 258.7109375 C-118.61084091 265.60650897 -131.07695387 267.26160079 -142.02929688 266.01318359 C-146.97319996 265.28251272 -151.86040954 264.32036983 -156.74609375 263.2734375 C-163.33516096 275.83384687 -162.30748681 292.37290552 -158.58984375 305.74609375 C-155.60314027 314.69237686 -150.58611581 320.96327716 -142.140625 325.20703125 C-131.76619786 329.82728999 -119.77595881 331.33939183 -108.68359375 328.1484375 C-102.91707383 325.81752619 -98.22384842 322.02893937 -95.74609375 316.2734375 C-94.6626506 312.54910168 -93.83455262 309.03495298 -93.38671875 305.1796875 C-92.23314423 295.30508961 -89.91972955 289.54936549 -82.109375 283.265625 C-78.07565762 280.14239036 -73.92489367 277.19794246 -69.74609375 274.2734375 C-68.823125 273.60441406 -67.90015625 272.93539062 -66.94921875 272.24609375 C-57.54183909 265.61226913 -47.56042493 265.10884434 -36.3125 266.78515625 C-35.46558594 266.94628906 -34.61867187 267.10742188 -33.74609375 267.2734375 C-32.67038264 270.59836276 -32.70551287 272.14930776 -33.80859375 275.5234375 C-35.74609375 278.2734375 -35.74609375 278.2734375 -38.30859375 279.2109375 C-41.24078102 279.26425 -43.6264428 278.9784371 -46.49609375 278.5234375 C-54.14670042 277.70250802 -59.25435958 281.26381713 -65.08984375 285.84765625 C-75.5666436 293.83159362 -75.5666436 293.83159362 -80.99609375 305.2109375 C-81.13660156 306.07460938 -81.27710938 306.93828125 -81.421875 307.828125 C-81.68719966 309.82924835 -81.93753956 311.83235342 -82.18359375 313.8359375 C-83.76216538 323.48276412 -87.31644656 329.89955504 -94.99609375 336.0859375 C-102.20255081 339.19781668 -110.09574921 340.6430362 -117.74609375 342.2734375 C-118.48066108 356.63830981 -116.86206656 370.67528414 -107.74609375 382.2734375 C-107.08609375 382.2734375 -106.42609375 382.2734375 -105.74609375 382.2734375 C-105.54371094 382.84191406 -105.34132813 383.41039062 -105.1328125 383.99609375 C-103.2242975 387.13035923 -100.59498411 388.78522025 -97.55859375 390.7109375 C-96.63506104 391.2997168 -96.63506104 391.2997168 -95.69287109 391.90039062 C-88.17661498 396.49018114 -79.33631856 400.30848237 -70.43359375 400.5234375 C-65.35533676 401.55630333 -63.11964785 404.43287804 -59.46875 407.9765625 C-51.54808886 414.65855496 -40.91703506 417.11464317 -30.74609375 416.2734375 C-23.70478514 415.11056859 -16.75553901 413.67131569 -11.74609375 408.2734375 C-5.82509927 399.99354415 -4.44063519 391.45701372 -4.49885559 381.51533508 C-4.49523397 380.08551364 -4.49523397 380.08551364 -4.49153918 378.62680691 C-4.48592534 375.44815536 -4.49454801 372.26970684 -4.50317383 369.09106445 C-4.50210033 366.80558722 -4.50016065 364.52011025 -4.49742126 362.2346344 C-4.49257919 356.03605889 -4.50022194 349.83755552 -4.51037431 343.63898873 C-4.5191716 337.14280549 -4.51739699 330.64662439 -4.51701355 324.1504364 C-4.51794984 313.23642757 -4.52657263 302.32244709 -4.5402832 291.40844727 C-4.55435322 280.20238745 -4.56145461 268.99635198 -4.56079102 257.7902832 C-4.56075106 257.10077827 -4.5607111 256.41127333 -4.56066994 255.70087431 C-4.5606094 254.66833351 -4.5606094 254.66833351 -4.56054765 253.61493331 C-4.55982063 240.18249223 -4.56682306 226.7500649 -4.57599425 213.31762671 C-4.57812007 209.45816805 -4.5788347 205.59871129 -4.57923317 201.73925209 C-4.58024243 195.65796619 -4.58638648 189.57670561 -4.59639931 183.49542809 C-4.59930477 181.27071666 -4.60055367 179.04600231 -4.59997177 176.82128906 C-4.57932537 161.81210941 -4.57932537 161.81210941 -5.52446365 146.84075928 C-5.90362738 142.4485972 -5.83131275 138.06456226 -5.7734375 133.66015625 C-5.76080676 131.73372565 -5.74844469 129.80729328 -5.73632812 127.88085938 C-5.71145565 124.90773685 -5.68330129 121.93471203 -5.65014648 118.96166992 C-5.61982998 116.04865934 -5.6021528 113.13577472 -5.5859375 110.22265625 C-5.57247787 109.34228195 -5.55901825 108.46190765 -5.54515076 107.55485535 C-5.51593206 100.3050053 -6.48979442 93.84741297 -10.18359375 87.4609375 C-10.59480469 86.73261719 -11.00601563 86.00429687 -11.4296875 85.25390625 C-15.35055909 79.35514692 -21.0690749 77.14443102 -27.74609375 75.2734375 C-45.47326931 72.77784371 -58.88874651 79.4741762 -71.74609375 91.2734375 Z M36.25390625 83.2734375 C29.88678393 91.87765685 30.0115192 102.07104856 30.23925781 112.3762207 C30.32048477 116.58254936 30.16028942 120.67681021 29.76139545 124.8669672 C29.25449765 130.75769239 29.10560944 136.58972353 29.10673523 142.49961853 C29.10305854 143.56242289 29.09938185 144.62522724 29.09559375 145.72023779 C29.08466918 149.24570724 29.08073248 152.77114711 29.0769043 156.29663086 C29.07063148 158.83885285 29.06398397 161.38107395 29.05699158 163.92329407 C29.03786371 171.51945173 29.02718282 179.11560415 29.01826379 186.71177968 C29.01474775 189.57853348 29.01060216 192.44528619 29.00642413 195.31203909 C28.98797871 207.9696313 28.97222737 220.62722355 28.96452618 233.28482723 C28.9626167 236.37274616 28.96069629 239.46066508 28.95874023 242.54858398 C28.95825649 243.31594777 28.95777275 244.08331156 28.95727435 244.87392879 C28.94896876 257.31249294 28.92361317 269.75096112 28.89115956 282.18948334 C28.85803701 294.98957838 28.8400732 307.78962465 28.83688194 320.58976275 C28.83472291 327.76483265 28.8260623 334.93976206 28.80042076 342.11478996 C28.7763589 348.86266982 28.77292037 355.61025375 28.78318214 362.35818291 C28.78367668 364.82801657 28.77738064 367.29786282 28.7636261 369.76765823 C28.10151313 390.91292029 28.10151313 390.91292029 37.25390625 409.2734375 C44.02357088 415.22766525 52.10502171 415.81371567 60.75390625 416.5859375 C69.32374893 415.82077298 77.74082667 414.0784078 83.82421875 407.6015625 C89.76461906 401.58401414 96.43487058 400.44773228 104.38720703 398.71191406 C115.55830148 396.08789031 126.66069735 389.76919609 133.25390625 380.2734375 C134.05634766 379.16355469 134.05634766 379.16355469 134.875 378.03125 C139.1338858 371.63781472 140.36839147 365.81631643 141.25390625 358.2734375 C141.51880859 357.005 141.51880859 357.005 141.7890625 355.7109375 C142.2530442 353.27795785 142.38730482 351.05931512 142.37890625 348.5859375 C142.38148438 347.81894531 142.3840625 347.05195313 142.38671875 346.26171875 C142.37759558 344.19864414 142.37759558 344.19864414 141.25390625 342.2734375 C138.1982277 341.58769953 135.15859247 341.06466292 132.06445312 340.59375 C127.26858395 339.76050916 124.12382362 338.18438707 120.25390625 335.2734375 C119.04734375 334.438125 119.04734375 334.438125 117.81640625 333.5859375 C116.54796875 332.44125 116.54796875 332.44125 115.25390625 331.2734375 C114.39925781 330.52320313 114.39925781 330.52320313 113.52734375 329.7578125 C107.71511237 323.67351922 106.80721247 316.77505263 105.67163086 308.72485352 C104.90466238 303.5516958 104.27290323 299.98808325 100.25390625 296.2734375 C99.59390625 296.2734375 98.93390625 296.2734375 98.25390625 296.2734375 C98.00640625 295.6340625 97.75890625 294.9946875 97.50390625 294.3359375 C96.4657743 292.07708636 96.4657743 292.07708636 94.25390625 291.7734375 C93.59390625 291.6084375 92.93390625 291.4434375 92.25390625 291.2734375 C91.98707031 290.68949219 91.72023438 290.10554687 91.4453125 289.50390625 C88.9115599 284.76038909 83.80341942 281.91022431 79.25390625 279.2734375 C75.46718048 278.13016087 71.97502292 278.1907504 68.05859375 278.37890625 C64.68027689 278.50980045 62.60269949 278.47274792 59.62890625 276.7734375 C57.51520472 272.93034381 59.08479042 270.41160287 60.25390625 266.2734375 C63.08783551 266.19168954 65.91935444 266.13258765 68.75390625 266.0859375 C69.54539062 266.06080078 70.336875 266.03566406 71.15234375 266.00976562 C80.7073125 265.8922865 86.81107473 269.21425134 94.19140625 275.0234375 C94.8872583 275.56129883 95.58311035 276.09916016 96.30004883 276.65332031 C97.67211744 277.71463833 99.04160798 278.77929962 100.40820312 279.84765625 C101.95326689 281.04119757 103.52984827 282.19378912 105.11328125 283.3359375 C111.07819548 287.65949949 115.3713082 291.85471611 116.85546875 299.28515625 C117.16577716 301.50728004 117.46240354 303.73135263 117.74609375 305.95703125 C118.91766035 313.60826238 121.23768985 320.72385391 127.16015625 325.96875 C131.27251939 328.53130465 135.4941565 328.94164252 140.25390625 329.2734375 C141.91873047 329.39525391 141.91873047 329.39525391 143.6171875 329.51953125 C153.77178739 329.89228075 164.64583792 328.3700651 172.76953125 321.734375 C178.84225814 315.75753327 181.77121244 309.3541284 184.25390625 301.2734375 C184.59421875 300.28923828 184.59421875 300.28923828 184.94140625 299.28515625 C187.98053267 289.42910043 187.16037867 277.75828822 183.25390625 268.2734375 C182.06819643 265.92229623 182.06819643 265.92229623 180.25390625 264.2734375 C177.93258526 263.96921126 177.93258526 263.96921126 175.44140625 264.4609375 C174.549375 264.58726562 173.65734375 264.71359375 172.73828125 264.84375 C170.88745512 265.16386144 169.03880756 265.49661889 167.19140625 265.8359375 C156.62417619 267.40978028 146.27819623 266.10162478 137.25390625 260.2734375 C136.26390625 259.9434375 135.27390625 259.6134375 134.25390625 259.2734375 C133.92390625 258.2834375 133.59390625 257.2934375 133.25390625 256.2734375 C132.04734375 255.87125 132.04734375 255.87125 130.81640625 255.4609375 C128.25390625 254.2734375 128.25390625 254.2734375 126.75390625 251.4609375 C126.25390625 248.2734375 126.25390625 248.2734375 127.31640625 245.4609375 C129.25390625 243.2734375 129.25390625 243.2734375 131.56640625 242.3359375 C134.90351525 242.25833031 137.22084757 242.89477446 140.25390625 244.2734375 C140.58390625 245.2634375 140.91390625 246.2534375 141.25390625 247.2734375 C141.91390625 247.2734375 142.57390625 247.2734375 143.25390625 247.2734375 C143.59228516 248.20929688 143.59228516 248.20929688 143.9375 249.1640625 C146.14348695 252.69887839 149.44943328 252.81990688 153.328125 253.73046875 C162.96842156 255.51952245 172.07814458 253.66424336 180.72265625 248.91796875 C188.2637448 243.670159 190.66461301 236.78347134 193.25390625 228.2734375 C193.58390625 227.2834375 193.91390625 226.2934375 194.25390625 225.2734375 C195.06698748 210.7630647 192.77511045 199.3158459 186.25390625 186.2734375 C185.59390625 186.2734375 184.93390625 186.2734375 184.25390625 186.2734375 C184.1971875 185.73589844 184.14046875 185.19835937 184.08203125 184.64453125 C182.87671151 181.19345068 180.484139 178.92949681 178.00390625 176.3359375 C177.52566406 175.82353516 177.04742187 175.31113281 176.5546875 174.78320312 C173.51965432 171.5466569 170.405481 168.39625701 167.25390625 165.2734375 C164.96232433 167.38578954 164.03643762 168.72510311 162.62890625 171.6484375 C157.58261802 182.04918424 151.09920516 192.35789265 139.921875 196.51171875 C134.82526184 198.09118034 130.06030379 199.54713033 124.69140625 199.2109375 C121.16662918 198.94837756 121.16662918 198.94837756 118.56640625 201.2109375 C116.65363907 203.74406161 115.48106081 205.83345381 114.12890625 208.6484375 C109.50893643 217.28577239 99.60443448 221.0257916 90.78515625 224.20703125 C81.18147583 227.10725775 71.31695101 228.92656781 61.25390625 228.2734375 C60.55806608 224.25302765 60.08389655 221.19080331 61.25390625 217.2734375 C61.83245361 217.20350586 62.41100098 217.13357422 63.00708008 217.06152344 C76.50814608 215.39051298 88.52488279 213.57149654 100.25390625 206.2734375 C100.25390625 205.6134375 100.25390625 204.9534375 100.25390625 204.2734375 C100.91390625 204.2734375 101.57390625 204.2734375 102.25390625 204.2734375 C102.66640625 203.2215625 103.07890625 202.1696875 103.50390625 201.0859375 C106.04206148 195.28443984 109.08740795 191.7951322 114.83203125 189.1171875 C118.64785996 187.78780201 122.5268271 187.22136168 126.51953125 186.66796875 C134.55630241 185.50837748 140.00644904 183.18484117 145.1875 176.89453125 C146.43709943 175.31835768 146.43709943 175.31835768 146.25390625 173.2734375 C146.91390625 173.2734375 147.57390625 173.2734375 148.25390625 173.2734375 C154.62658663 161.42987113 157.60931051 153.58382568 154.25390625 140.2734375 C153.41230017 137.78869575 152.43347093 135.63256687 151.25390625 133.2734375 C150.66609375 132.066875 150.66609375 132.066875 150.06640625 130.8359375 C149.66421875 130.0625 149.66421875 130.0625 149.25390625 129.2734375 C148.59390625 129.2734375 147.93390625 129.2734375 147.25390625 129.2734375 C146.87878906 128.12875 146.87878906 128.12875 146.49609375 126.9609375 C143.28740566 120.01887018 133.91829321 116.92669228 127.20703125 114.2421875 C123.16796662 112.91720334 119.49099298 112.48529184 115.25390625 112.2734375 C114.92390625 113.2634375 114.59390625 114.2534375 114.25390625 115.2734375 C112.19140625 116.4609375 112.19140625 116.4609375 110.25390625 117.2734375 C110.25390625 117.9334375 110.25390625 118.5934375 110.25390625 119.2734375 C109.03703125 119.5003125 107.82015625 119.7271875 106.56640625 119.9609375 C95.61245304 122.43162411 84.34956769 126.26658222 77.50390625 135.6484375 C72.62076757 144.21448213 71.192487 155.4990168 69.74609375 165.13671875 C69.25390625 167.2734375 69.25390625 167.2734375 67.25390625 170.2734375 C65.08984375 170.56640625 65.08984375 170.56640625 62.62890625 170.4609375 C61.81164062 170.43386719 60.994375 170.40679687 60.15234375 170.37890625 C59.52585937 170.34410156 58.899375 170.30929688 58.25390625 170.2734375 C55.65812508 162.48609398 57.80760836 154.91824361 60.00390625 147.2734375 C60.2565625 146.34015625 60.50921875 145.406875 60.76953125 144.4453125 C64.15405234 132.32872701 67.9940567 123.70069264 79.19140625 117.2109375 C82.52784281 115.46151249 85.86389032 114.01776536 89.4140625 112.77734375 C90.13150635 112.5254126 90.8489502 112.27348145 91.58813477 112.01391602 C93.00432391 111.52972013 94.42807057 111.06695855 95.85913086 110.62866211 C99.6465269 109.35689683 101.08906167 108.54032873 103.22265625 105.0859375 C103.56296875 104.1578125 103.90328125 103.2296875 104.25390625 102.2734375 C103.59390625 102.2734375 102.93390625 102.2734375 102.25390625 102.2734375 C102.35703125 101.5721875 102.46015625 100.8709375 102.56640625 100.1484375 C102.10573315 95.91024499 100.21018341 94.30010221 97.25390625 91.2734375 C96.59390625 91.2734375 95.93390625 91.2734375 95.25390625 91.2734375 C95.25390625 90.6134375 95.25390625 89.9534375 95.25390625 89.2734375 C92.09743389 86.69491079 88.65859262 84.50979998 85.25390625 82.2734375 C84.32771484 81.65855469 84.32771484 81.65855469 83.3828125 81.03125 C69.76264215 72.60438202 48.34835939 71.46925123 36.25390625 83.2734375 Z " fill="#FDFDFD" transform="translate(238.74609375,3.7265625)"/>
<path d="M0 0 C11.36722649 5.93072686 21.37284924 13.52563588 26.22265625 25.765625 C28.0835358 32.41654634 29.70617157 38.83523874 29.22265625 45.765625 C28.56265625 45.765625 27.90265625 45.765625 27.22265625 45.765625 C26.89265625 46.755625 26.56265625 47.745625 26.22265625 48.765625 C22.39476681 50.04158815 20.85608642 49.38907252 17.22265625 47.765625 C15.18818318 44.66111766 14.80950334 41.65384905 14.34765625 38.015625 C13.00852467 29.66634251 10.50399402 24.01451165 3.9140625 18.5625 C-0.2481065 15.78369341 -4.69880556 13.63093355 -9.22949219 11.51757812 C-15.39613791 8.625022 -15.39613791 8.625022 -17.77734375 5.765625 C-18.27734375 2.765625 -18.27734375 2.765625 -17.77734375 -0.234375 C-12.84549998 -5.49500836 -5.74123355 -2.55165936 0 0 Z " fill="#F8F6F5" transform="translate(308.77734375,336.234375)"/>
<path d="M0 0 C1.63741824 2.54709504 1.7623745 3.77558565 1.125 6.75 C-3.14739898 10.83835717 -7.45773299 13.11527319 -12.8125 15.5 C-21.32965623 19.54504395 -26.4149606 24.20331655 -29.6875 33.25 C-30.78743627 37.04977985 -31.57949018 40.90734917 -32.25 44.8046875 C-33.01183038 47.17588455 -33.92596437 48.21895033 -35.875 49.75 C-38.8125 50.25 -38.8125 50.25 -41.875 49.75 C-44.3125 47.875 -44.3125 47.875 -45.875 44.75 C-46.62020348 34.80789502 -42.27046883 24.29958811 -37.0234375 16.078125 C-36.45496094 15.42070312 -36.45496094 15.42070312 -35.875 14.75 C-35.215 14.75 -34.555 14.75 -33.875 14.75 C-33.6378125 14.16089844 -33.400625 13.57179688 -33.15625 12.96484375 C-29.00447639 5.78784487 -17.51862266 0.49458354 -9.77734375 -1.8984375 C-6.202228 -2.55913651 -3.02243354 -2.01495569 0 0 Z " fill="#F8F6F5" transform="translate(209.875,335.25)"/>
<path d="M0 0 C0.33 0.66 0.66 1.32 1 2 C1.66 2.33 2.32 2.66 3 3 C0.97257251 7.58838854 -1.32057332 10.60360614 -5 14 C-5.66 14.66 -6.32 15.32 -7 16 C-7.99 15.67 -8.98 15.34 -10 15 C-9.34 15 -8.68 15 -8 15 C-7.67 14.01 -7.34 13.02 -7 12 C-6.34 12 -5.68 12 -5 12 C-4.731875 11.319375 -4.46375 10.63875 -4.1875 9.9375 C-2.83946694 6.60289191 -1.42463702 3.30256763 0 0 Z " fill="#E1DFDE" transform="translate(421,309)"/>
<path d="M0 0 C0.78688445 2.77723925 1.11949924 5.22610077 1.09765625 8.109375 C1.09443359 8.86347656 1.09121094 9.61757812 1.08789062 10.39453125 C1.07951172 11.17183594 1.07113281 11.94914063 1.0625 12.75 C1.05798828 13.54277344 1.05347656 14.33554688 1.04882812 15.15234375 C1.03708565 17.10159508 1.01915146 19.05080738 1 21 C-1.45274229 17.32088656 -1.51555057 14.21431141 -1.75 9.9375 C-1.80542969 9.20466797 -1.86085938 8.47183594 -1.91796875 7.71679688 C-2.03325994 5.81449222 -2.02488313 3.90563268 -2 2 C-1.34 1.34 -0.68 0.68 0 0 Z " fill="#EFE9E3" transform="translate(69,208)"/>
<path d="M0 0 C-0.66 0.66 -1.32 1.32 -2 2 C-3.32 2 -4.64 2 -6 2 C-6.33 2.99 -6.66 3.98 -7 5 C-8.32 3.68 -9.64 2.36 -11 1 C-9.5437328 0.63743142 -8.08488815 0.28520207 -6.625 -0.0625 C-5.40683594 -0.35833984 -5.40683594 -0.35833984 -4.1640625 -0.66015625 C-2 -1 -2 -1 0 0 Z " fill="#E7E1E1" transform="translate(219,418)"/>
<path d="M0 0 C0.66 0.33 1.32 0.66 2 1 C2.1875 3.8125 2.1875 3.8125 2 7 C1.01 7.99 0.02 8.98 -1 10 C-0.67 6.7 -0.34 3.4 0 0 Z " fill="#DFDDDC" transform="translate(425,287)"/>
</svg>
