<?xml version="1.0" encoding="UTF-8"?>
<svg version="1.1" xmlns="http://www.w3.org/2000/svg" width="482" height="482">
<path d="M0 0 C0.74137207 0.36593262 1.48274414 0.73186523 2.24658203 1.10888672 C12.71150542 6.30806449 22.43617599 12.30023905 32 19 C32.94101562 19.64453125 33.88203125 20.2890625 34.8515625 20.953125 C53.15950833 33.8064911 70.59705392 50.07775611 84 68 C85.17369141 69.55847656 85.17369141 69.55847656 86.37109375 71.1484375 C93.19821002 80.3799968 99.20370463 90.09639599 105 100 C105.36335449 100.61391602 105.72670898 101.22783203 106.10107422 101.86035156 C136.34149143 153.48185839 142.60199261 219.99781696 127.72558594 277.32666016 C117.44116638 315.21844824 98.33911988 349.93112728 72 379 C70.90872006 380.22514098 69.81757694 381.45040384 68.7265625 382.67578125 C67.65238737 383.86840093 66.57690746 385.05984697 65.5 386.25 C65.00741699 386.79970459 64.51483398 387.34940918 64.00732422 387.91577148 C61.54987094 390.58841109 59.41790491 392.67798017 56 394 C56 394.66 56 395.32 56 396 C54.47162731 397.39599396 52.87349901 398.71587649 51.25 400 C50.23421875 400.80824219 49.2184375 401.61648438 48.171875 402.44921875 C47.64142578 402.87122559 47.11097656 403.29323242 46.56445312 403.72802734 C45.10314703 404.9161367 43.68249108 406.15376138 42.265625 407.39453125 C-1.34493173 445.52296997 -63.27788797 461.03277578 -120.13378906 457.48461914 C-179.05122996 453.37817436 -229.5334832 429.54441137 -272 389 C-272.67417969 388.36707031 -273.34835937 387.73414063 -274.04296875 387.08203125 C-315.87070156 346.78574861 -341.94682023 283.66129578 -343.203125 226.0234375 C-343.7752503 170.53452556 -329.18375855 117.24248874 -295 73 C-294.2884375 72.07445313 -293.576875 71.14890625 -292.84375 70.1953125 C-288.85316481 65.11206708 -284.63685943 60.26938468 -280.27734375 55.5 C-278.77320582 53.84880228 -277.28574045 52.18224309 -275.81640625 50.5 C-237.48056691 6.76570913 -178.50100634 -19.63780782 -121.02734375 -23.6171875 C-79.24222407 -26.15754092 -37.52039484 -18.81348179 0 0 Z M-82 56 C-88.29625889 65.35041432 -88.14907851 75.0070954 -88.13371277 85.89753723 C-88.13597833 87.08084159 -88.13824388 88.26414595 -88.14057809 89.48330802 C-88.14579611 92.75046349 -88.14656592 96.01758418 -88.14538372 99.28474247 C-88.14517898 102.81518324 -88.15070541 106.3456159 -88.15544128 109.87605286 C-88.16373238 116.78620107 -88.16649542 123.69634074 -88.16705366 130.60649351 C-88.16752953 136.22548896 -88.16958778 141.84448161 -88.17275429 147.46347618 C-88.18155642 163.40837336 -88.18617432 179.35326382 -88.18542381 195.29816345 C-88.18538386 196.15697898 -88.1853439 197.01579452 -88.18530273 197.90063477 C-88.18526185 198.76050362 -88.18522097 199.62037248 -88.18517885 200.50629797 C-88.18477244 214.44020081 -88.19434194 228.37407661 -88.2084411 242.30797163 C-88.22281713 256.62892709 -88.22971062 270.94986938 -88.22884732 285.27083224 C-88.22851579 293.30545773 -88.23124366 301.34005487 -88.24202538 309.37467384 C-88.25114649 316.2154051 -88.25329239 323.05609516 -88.24651595 329.89682988 C-88.24325896 333.38376088 -88.24316427 336.87061291 -88.2518692 340.35753632 C-88.25960001 344.1455983 -88.25493687 347.93345422 -88.24723816 351.72151184 C-88.25238172 352.81238863 -88.25752529 353.90326542 -88.26282471 355.02719909 C-88.22026004 364.53412624 -87.83694308 374.16620797 -82 382 C-74.30974637 389.09869566 -67.0461719 390.50449356 -56.7421875 390.2421875 C-45.29652264 389.5014451 -34.99550982 383.81176948 -25.9375 377 C-21.36673127 373.81148601 -16.36381671 372.25392713 -11.125 370.5 C4.05970971 365.39405469 15.61912617 359.04292396 23.71875 344.62109375 C27.46353164 336.9602752 30.17694664 329.27099786 30.0625 320.6875 C30.05347656 319.80449219 30.04445313 318.92148437 30.03515625 318.01171875 C30.02355469 317.34785156 30.01195312 316.68398438 30 316 C29.47792969 315.82984375 28.95585937 315.6596875 28.41796875 315.484375 C25.9409767 314.66883296 23.47072887 313.83431859 21 313 C20.11054688 312.70996094 19.22109375 312.41992188 18.3046875 312.12109375 C4.38879026 307.38334526 -3.56242489 301.24490258 -10 288.1875 C-10.68856954 286.77656312 -11.3760839 285.36511077 -12.0625 283.953125 C-17.6774016 272.42722348 -23.22913446 264.32520044 -35.60546875 259.7265625 C-41.6682803 257.88694921 -47.51297588 257.8052225 -53.8203125 257.671875 C-57 257 -57 257 -58.97265625 254.65625 C-60 252 -60 252 -59.3125 248.75 C-58 246 -58 246 -56 245 C-40.3015116 243.76118009 -26.54833301 247.5690158 -14.3125 257.6875 C-8.67754503 262.94224174 -5.40157562 269.01330466 -2.13671875 275.9140625 C2.89168729 286.49471834 7.46511719 294.67773516 18.82421875 299.30859375 C27.98681109 302.22022543 38.82201464 302.57561814 47.625 298.44921875 C59.80855874 291.01484327 66.37723284 280.01121653 70.08984375 266.5078125 C72.55397119 255.8876367 71.97572911 244.42102726 69 234 C67.81921875 234.42152344 66.6384375 234.84304688 65.421875 235.27734375 C63.86461798 235.83082667 62.3073244 236.3842067 60.75 236.9375 C59.97269531 237.21529297 59.19539062 237.49308594 58.39453125 237.77929688 C57.64042969 238.04677734 56.88632812 238.31425781 56.109375 238.58984375 C55.41811523 238.83597412 54.72685547 239.08210449 54.01464844 239.33569336 C48.26673289 241.23100095 42.89660134 241.21951088 36.875 241.25 C35.38226563 241.2809375 35.38226563 241.2809375 33.859375 241.3125 C25.0773079 241.35835936 15.69881159 240.16995804 9 234 C8.39881314 230.72687155 8.46056145 228.98368207 10.0625 226.0625 C14.46474575 223.64836523 20.32993239 226.35241194 24.875 227.5625 C37.29325068 230.70948527 48.90508056 228.79014188 60.19921875 222.76953125 C69.41199949 216.94890408 74.33206471 209.52536285 76.75 199.0625 C79.83921619 182.903523 76.36511133 168.20326794 67.3359375 154.46875 C63.06884551 148.62341851 57.9928106 143.33093687 51 141 C50.46632813 141.97839844 49.93265625 142.95679688 49.3828125 143.96484375 C40.55281698 159.69854596 30.29844325 167.22840385 13.125 173 C8.26432685 174.69376312 4.33648054 177.01444304 1 181 C1 181.66 1 182.32 1 183 C0.34 183 -0.32 183 -1 183 C-1.95559732 184.39926751 -2.90523853 185.80297859 -3.82421875 187.2265625 C-11.43434488 198.70495873 -22.84027642 204.56590133 -36.11328125 207.4609375 C-43.5673359 208.60296658 -51.65342343 208.69226444 -59 207 C-60.32150895 200.75286679 -60.32150895 200.75286679 -59.0625 197.8046875 C-55.87428582 195.0150001 -52.35505438 195.40114425 -48.3125 195.375 C-37.27604422 195.19212584 -26.67884813 193.4157027 -18.38671875 185.5078125 C-15.84908118 182.72757832 -13.40406444 179.89626714 -11 177 C-3.52728673 168.03888183 3.43552568 162.91239904 14.375 158.75 C26.27054472 153.91640236 33.73955447 148.14682408 39.16015625 136.12890625 C42.20737943 128.40454981 42.32425837 118.5710648 39.5625 110.6875 C35.13917843 101.35972364 27.34252494 94.22842107 18 90 C7.53122141 86.39864082 -4.95800526 86.55943152 -15.2890625 90.62109375 C-26.65767529 96.40368787 -33.4118771 105.67033157 -37.44140625 117.62890625 C-38.1640258 119.93527786 -38.87097786 122.2466144 -39.5625 124.5625 C-42.69848882 134.98282647 -46.58088612 147.73482241 -55.9375 154.375 C-58.71612674 155.2170081 -60.27363575 154.97869486 -63 154 C-64.9375 152.3125 -64.9375 152.3125 -66 150 C-64.89123954 145.49021026 -63.0833483 142.51993566 -60.1875 138.9375 C-54.93974949 131.91839688 -52.41626824 124.48331667 -49.796875 116.19140625 C-47.59841744 109.2568031 -45.26139019 103.05592121 -41.234375 96.953125 C-39.84020058 94.91979399 -39.84020058 94.91979399 -39 92 C-38.34 92 -37.68 92 -37 92 C-37 91.34 -37 90.68 -37 90 C-36.34 90 -35.68 90 -35 90 C-35 89.34 -35 88.68 -35 88 C-34.43539062 87.72929688 -33.87078125 87.45859375 -33.2890625 87.1796875 C-30.89423493 85.94549309 -28.65552739 84.5586866 -26.375 83.125 C-21.44848047 80.13389886 -16.41041727 77.95695944 -11 76 C-13.77368494 65.78984085 -22.34172071 58.67321018 -31.1875 53.43359375 C-35.64370793 51.16216554 -40.21532266 49.44238247 -45 48 C-45.92619141 47.70996094 -45.92619141 47.70996094 -46.87109375 47.4140625 C-59.0325008 45.04872461 -73.17510047 46.6456065 -82 56 Z M-189.9453125 64.203125 C-193.15462913 68.12706679 -195.29832819 70.88139408 -196 76 C-194.44152344 76.72703125 -194.44152344 76.72703125 -192.8515625 77.46875 C-175.82654007 85.57347013 -165.80733146 94.34148667 -159.17578125 112.46484375 C-158.3346864 114.99371697 -157.54098954 117.5106184 -156.79296875 120.06640625 C-154.2246409 128.82755327 -151.29651394 135.92870485 -145.33203125 142.96875 C-143.15186041 146.2933507 -143.80528943 149.10578862 -144 153 C-147.80695173 154.84909084 -149.94687847 155.27632859 -154 154 C-163.69771376 145.1652184 -166.94929392 131.58287968 -170.23828125 119.41162109 C-173.33899097 108.49453895 -179.66700749 98.15055615 -189.78125 92.42578125 C-200.31029013 87.4867557 -212.02966456 86.13904469 -223.4296875 88.80078125 C-233.22134926 92.50126641 -241.44942245 99.28592901 -246.10546875 108.74609375 C-249.82829432 118.12631363 -250.10148647 126.74032365 -246.38671875 136.125 C-240.11089468 149.13628596 -231.64949237 154.71073895 -218.59521484 159.6875 C-207.41260347 164.05803963 -199.05190723 171.48740848 -192.6875 181.625 C-187.87474382 188.54635503 -179.31384012 192.585158 -171.3125 194.52734375 C-166.06051909 195.27674197 -160.76391253 195.42740109 -155.4609375 195.44677734 C-149.48984915 195.5695542 -149.48984915 195.5695542 -146.90625 197.83984375 C-146 200 -146 200 -146.5 203.125 C-148 206 -148 206 -150.19921875 207.15625 C-161.63404415 210.60105096 -175.69351544 207.37354764 -186.31640625 202.46875 C-188.9293758 201.04918732 -191.46425542 199.55159196 -194 198 C-195.32603868 197.31893932 -196.65695521 196.64687937 -198 196 C-198 195.34 -198 194.68 -198 194 C-198.66 194 -199.32 194 -200 194 C-200.38285156 193.16082031 -200.38285156 193.16082031 -200.7734375 192.3046875 C-202.16965489 189.68122169 -203.7941481 187.46644805 -205.625 185.125 C-206.25664062 184.30257812 -206.88828125 183.48015625 -207.5390625 182.6328125 C-213.32070701 176.4473706 -219.59643632 173.03111051 -227.4375 170.0625 C-234.4756396 167.24115053 -240.54571491 164.41692698 -246 159 C-246.54398438 158.47019531 -247.08796875 157.94039063 -247.6484375 157.39453125 C-252.14667587 152.58803796 -255.02833895 146.82740625 -258 141 C-265.8459093 142.4168685 -271.93281665 149.38941541 -276.4375 155.5625 C-284.11836765 167.54465353 -287.8409826 181.91129086 -285.49609375 196.03515625 C-283.29204977 205.99743506 -279.2519413 214.69412895 -271 221 C-260.05696464 227.79438819 -246.99093636 231.26940937 -234.1796875 228.359375 C-232.33223588 227.83447231 -230.48830266 227.29699893 -228.6484375 226.74609375 C-224.90078409 225.69033888 -220.90924242 224.62536427 -217 225 C-215.25390625 226.30859375 -215.25390625 226.30859375 -214 228 C-213.9375 230.9375 -213.9375 230.9375 -215 234 C-222.74414299 240.94987192 -233.33646713 241.53079492 -243.25 241.4375 C-244.34812012 241.43210205 -245.44624023 241.4267041 -246.57763672 241.42114258 C-254.9835779 241.2640512 -262.15392856 240.16337273 -270 237 C-270.78890625 236.69191406 -271.5778125 236.38382813 -272.390625 236.06640625 C-273.94778014 235.42576565 -275.47977148 234.72391834 -277 234 C-283.19586203 241.54278856 -281.64597456 252.75393904 -281 262 C-279.13391305 275.92434639 -272.76273922 287.07657831 -262 296 C-252.5925087 302.00619374 -240.92888383 302.4671132 -230.12890625 300.46875 C-227.98124546 299.7838807 -226.02155364 298.99364501 -224 298 C-223.08734375 297.58234375 -223.08734375 297.58234375 -222.15625 297.15625 C-212.42372953 292.20461678 -208.43473323 284.34028453 -203.90625 274.88671875 C-197.68233439 261.97705314 -189.33023837 253.5891682 -176 248 C-167.90958581 245.66130009 -157.00737124 242.63731254 -148.78515625 245.87109375 C-147 247 -147 247 -146.125 249.375 C-145.98563655 252.30163248 -146.36868256 253.59595325 -148 256 C-150.24010247 257.12005123 -151.65982582 257.19047122 -154.1484375 257.32421875 C-166.67094892 258.15671686 -177.00771685 259.64084139 -186.3125 268.875 C-190.07438189 273.46682284 -192.12837794 278.54020508 -194.36328125 283.97387695 C-199.56400539 296.4295527 -207.36010384 304.86136179 -219.8125 310.25 C-225.71511004 312.43405986 -231.84749618 313.72706818 -238 315 C-240.55655442 324.1305515 -236.40487057 336.84749351 -232 345 C-229.8582986 348.18443908 -227.52116502 351.10960258 -225 354 C-224.2575 354.86625 -223.515 355.7325 -222.75 356.625 C-214.48888818 363.75959658 -205.83580839 367.33597351 -195.69458008 371.01879883 C-189.85816311 373.17733099 -184.8628621 375.65272617 -179.7265625 379.19921875 C-167.97937925 386.95774522 -156.11605302 392.47957099 -141.8125 390.0625 C-135.50251342 388.458857 -130.07222116 386.23936405 -126 381 C-122.04826111 373.48454398 -121.42513503 366.70216853 -121.4853363 358.32373047 C-121.47491801 356.45939771 -121.47491801 356.45939771 -121.46428925 354.55740166 C-121.44923203 351.13291743 -121.4519303 347.70930892 -121.46244228 344.28486538 C-121.46946386 340.58198285 -121.45341411 336.87918714 -121.44044495 333.17633057 C-121.41884968 325.9325333 -121.41892019 318.68889341 -121.42707049 311.44507456 C-121.43338057 305.5557952 -121.43222423 299.6665616 -121.42579842 293.77728271 C-121.42489676 292.93781503 -121.42399511 292.09834734 -121.42306613 291.23344123 C-121.42121486 289.52786587 -121.41935229 287.82229053 -121.41747857 286.11671519 C-121.40091596 270.13851355 -121.40960649 254.16040032 -121.42646415 238.18220401 C-121.44116259 223.57516823 -121.42652798 208.96833813 -121.39769398 194.36132884 C-121.36827871 179.34759678 -121.35733373 164.33395957 -121.36687618 149.32019997 C-121.3678987 147.62103909 -121.36889331 145.9218782 -121.3698597 144.22271729 C-121.37033609 143.38678476 -121.37081248 142.55085224 -121.3713033 141.68958843 C-121.37346446 135.81009175 -121.36367936 129.9306852 -121.34908867 124.0512085 C-121.33154515 116.88213661 -121.33171167 109.71332695 -121.35444032 102.54426527 C-121.36556385 98.88921538 -121.36878857 95.23462713 -121.35013962 91.57959747 C-121.33015475 87.61158154 -121.34916156 83.64428295 -121.37181091 79.67626953 C-121.35997518 78.52937086 -121.34813946 77.38247219 -121.33594507 76.20081902 C-121.43260144 67.85413043 -123.26561395 61.18758547 -128.91160864 54.85640144 C-136.25817292 47.68762741 -144.09279195 46.53901324 -154.0534668 46.64819336 C-167.97674009 47.12063976 -180.76532677 53.80651466 -189.9453125 64.203125 Z " fill="#000000" transform="translate(345,24)"/>
<path d="M0 0 C13.7832971 5.8026568 22.47240575 12.5541688 29.10546875 26.2890625 C31.38168788 32.16662362 32.14157311 38.78876365 31 45 C28.6528516 47.97638393 27.73462713 48.89505327 23.9375 49.4375 C21 49 21 49 19.1875 47.625 C16.86117644 44.44160987 16.73483086 41.82021916 16.3125 37.9375 C15.09345849 29.7654069 11.60379958 23.26976786 4.9765625 18.11328125 C1.18935396 15.98016972 -2.96215517 14.67928161 -7.07421875 13.30859375 C-10.18839744 11.91573679 -11.39317235 10.97434054 -13 8 C-12.93049419 4.59421526 -12.58694208 2.72780818 -10.4375 0.0625 C-6.66829109 -1.5804885 -3.81488983 -1.15442903 0 0 Z " fill="#050505" transform="translate(291,328)"/>
<path d="M0 0 C2 2 2 2 2.4375 5.375 C2 9 2 9 0.1875 11.1875 C-2.70583797 12.83273139 -5.23248798 13.78372715 -8.375 14.8125 C-15.42745435 17.25190884 -19.64043971 21.24129196 -23.3125 27.6875 C-24.90511985 31.12809648 -25.46341256 34.4451466 -26 38.1875 C-26.67497474 42.79012946 -27.14684042 46.00309811 -31 49 C-34.55803554 49.66713166 -36.24574008 49.43667679 -39.375 47.625 C-42.44788636 42.66110665 -41.58073345 37.508899 -40.3046875 31.99609375 C-36.86317768 20.67381566 -30.32509764 10.33103459 -19.9609375 4.203125 C-12.74377576 0.51552411 -8.11177329 -1.65239826 0 0 Z " fill="#050505" transform="translate(200,328)"/>
<path d="" fill="#000000" transform="translate(0,0)"/>
</svg>
